<svg viewBox="0 0 512 512" xmlns="http://www.w3.org/2000/svg"><path d="M465 352.906a17.096 17.096 0 0 0-17.098 17.098v31.186L275.745 103.012l27.393-47.463a17.098 17.098 0 0 0-29.613-17.098L256 68.815l-17.534-30.364a17.1 17.1 0 1 0-29.614 17.107l27.402 47.454L64.098 401.19v-31.185a17.098 17.098 0 1 0-34.196 0v94.962a17.03 17.03 0 0 0 1.19 5.926c.178.48.355.93.574 1.39.198.417.293.87.528 1.275a16.988 16.988 0 0 0 2.692 3.502c.012.014.019.028.03.04a16.97 16.97 0 0 0 4.819 3.25c.446.21.882.384 1.348.558A16.905 16.905 0 0 0 47 482.103h142.495V360.507a66.5 66.5 0 0 1 133 0v121.596H465a16.899 16.899 0 0 0 5.915-1.195c.468-.174.906-.35 1.353-.561a16.951 16.951 0 0 0 4.816-3.247c.011-.012.018-.026.03-.04a17.026 17.026 0 0 0 2.692-3.502c.235-.403.329-.853.527-1.27.22-.462.398-.915.577-1.4a17.039 17.039 0 0 0 1.188-5.92v-94.964A17.096 17.096 0 0 0 465 352.906Z" fill="#a9a9a9" class="fill-000000"></path></svg>